# xmcd
#
# Track frame offsets:
#	167
#	18335
#	37595
#	56787
#	77433
#	100454
#	119252
#	143361
#	162254
#	182469
#	203523
#
# Disc length: 2982 seconds
#
# Revision: 4294836219
# Processed by: cddbd v1.5.2PL0 Copyright (c) Steve Scherf et al.
# Submitted via: EZCDAudioConverter 8.0.6.1
#
DISCID=7a0ba40b
DTITLE=The Black Lillies - Runaway Freeway Blues
DYEAR=2013
DGENRE=Country
TTITLE0=The Fall
TTITLE1=Gold And Roses
TTITLE2=Ramblin' Boy
TTITLE3=Goodbye Charlie
TTITLE4=Smokestack Lady
TTITLE5=Catherine
TTITLE6=Ruby
TTITLE7=By The Wayside
TTITLE8=All This Living
TTITLE9=Baby Doe
TTITLE10=Glow
EXTD=
EXTT0=
EXTT1=
EXTT2=
EXTT3=
EXTT4=
EXTT5=
EXTT6=
EXTT7=
EXTT8=
EXTT9=
EXTT10=
PLAYORDER=
